<?xml version="1.0" encoding="utf-8"?>
<!-- Generator: Adobe Illustrator 27.5.0, SVG Export Plug-In . SVG Version: 6.00 Build 0)  -->
<svg version="1.1" xmlns="http://www.w3.org/2000/svg" xmlns:xlink="http://www.w3.org/1999/xlink" x="0px" y="0px"
	 viewBox="0 0 500 500" style="enable-background:new 0 0 500 500;" xml:space="preserve">
<g id="BACKGROUND">
	<path style="opacity:0.2;fill:#00EFDD;" d="M120.855,355.055c0,0-98.396-6.954-72.325-172.23
		C74.601,17.549,308.396,2.584,407.632,65.668c99.237,63.084,55.505,278.372-49.618,279.374
		C252.89,346.043,120.855,355.055,120.855,355.055z"/>
</g>
<g id="OBJECTS">
	<g>
		<ellipse style="opacity:0.2;fill:#171A43;" cx="159.311" cy="377.303" rx="111.517" ry="8.341"/>
		<g>
			<g>
				<path style="fill:#FF685B;" d="M59.755,278.432l9.007-66.145l1.021-6.452l0.004,0.024c1.299-7.052,7.468-12.399,14.896-12.399
					h197.038c8.372,0,15.159,6.787,15.159,15.159v135.905c0,8.372-6.786,15.159-15.159,15.159h-82.695H84.683H48.445
					c-8.372,0-15.159-6.787-15.159-15.159v-0.74l1.878-44.467L59.755,278.432z"/>
				<g>
					<rect x="165.998" y="201.347" style="fill:#CE524E;" width="116.164" height="84.759"/>
					<rect x="165.998" y="291.445" style="fill:#CE524E;" width="116.204" height="2.667"/>
					<rect x="165.998" y="300.336" style="fill:#CE524E;" width="116.204" height="2.667"/>
					<rect x="165.998" y="309.227" style="fill:#CE524E;" width="116.204" height="2.667"/>
					<rect x="165.998" y="318.118" style="fill:#CE524E;" width="116.204" height="2.667"/>
				</g>
			</g>
			<g>
				<g>
					<g>
						<rect x="118.411" y="201.468" style="fill:#CE524E;" width="43.333" height="148.169"/>
						<path style="fill:#FF685B;" d="M156.558,279.573c0,1.331-1.079,2.409-2.409,2.409h-10.326c-1.331,0-2.409-1.079-2.409-2.409
							l0,0c0-1.331,1.079-2.409,2.409-2.409h10.326C155.479,277.163,156.558,278.242,156.558,279.573L156.558,279.573z"/>
					</g>
					<g>
						<rect x="123.79" y="207.637" style="fill:#00EFDD;" width="33.07" height="66.562"/>
						<rect x="123.79" y="207.637" style="fill:#00EFDD;" width="33.07" height="66.562"/>
						<g style="opacity:0.7;">
							<defs>
								<rect id="SVGID_1_" x="123.79" y="207.637" style="opacity:0.7;" width="33.07" height="66.562"/>
							</defs>
							<clipPath id="SVGID_00000021806561671389240680000003823735025024606390_">
								<use xlink:href="#SVGID_1_"  style="overflow:visible;"/>
							</clipPath>
							
								<rect x="12.2" y="217.451" transform="matrix(0.7071 -0.7071 0.7071 0.7071 -134.5807 133.4006)" style="clip-path:url(#SVGID_00000021806561671389240680000003823735025024606390_);fill:#FFFFFF;" width="163.077" height="23.405"/>
							
								<rect x="26.006" y="249.41" transform="matrix(0.7071 -0.7071 0.7071 0.7071 -149.0016 150.81)" style="clip-path:url(#SVGID_00000021806561671389240680000003823735025024606390_);fill:#FFFFFF;" width="163.077" height="11.714"/>
						</g>
					</g>
				</g>
			</g>
			<g>
				<polygon style="fill:#00EFDD;" points="68.654,274.199 115.477,274.199 115.477,207.637 75.268,207.637 				"/>
				<g style="opacity:0.7;">
					<defs>
						<polygon id="SVGID_00000045619475844659535880000017288581494149030562_" style="opacity:0.7;" points="68.654,274.199 
							115.477,274.199 115.477,207.637 75.268,207.637 						"/>
					</defs>
					<clipPath id="SVGID_00000052796092933442794970000014504895763723163273_">
						<use xlink:href="#SVGID_00000045619475844659535880000017288581494149030562_"  style="overflow:visible;"/>
					</clipPath>
					
						<rect x="14.063" y="224.158" transform="matrix(0.7071 -0.7071 0.7071 0.7071 -141.2876 130.6225)" style="clip-path:url(#SVGID_00000052796092933442794970000014504895763723163273_);fill:#FFFFFF;" width="145.936" height="23.405"/>
					
						<rect x="28.516" y="255.47" transform="matrix(0.7071 -0.7071 0.7071 0.7071 -155.0617 148.2998)" style="clip-path:url(#SVGID_00000052796092933442794970000014504895763723163273_);fill:#FFFFFF;" width="145.936" height="11.714"/>
				</g>
			</g>
			<g>
				<g>
					<g>
						<path style="fill:#007E89;" d="M34.19,349.637c2.1,5.852,7.681,10.046,14.256,10.046h36.238h114.344h82.695
							c6.575,0,12.156-4.194,14.257-10.046H34.19z"/>
						<path style="fill:#007E89;" d="M120.552,359.683c0.125-1.145,0.194-2.308,0.194-3.486c0-17.597-14.265-31.863-31.862-31.863
							S57.022,338.6,57.022,356.197c0,1.178,0.069,2.341,0.193,3.486H120.552z"/>
						<path style="fill:#007E89;" d="M254.817,359.683c0.125-1.145,0.193-2.308,0.193-3.486c0-17.597-14.265-31.863-31.862-31.863
							s-31.862,14.266-31.862,31.863c0,1.178,0.069,2.341,0.194,3.486H254.817z"/>
					</g>
					<path style="fill:#00BFB5;" d="M263.514,338.261h36.453v10.96c0,0,1.123,5.439-4.501,5.439c-5.624,0-32.353,0-32.353,0
						L263.514,338.261z"/>
				</g>
				<g>
					<g>
						<path style="fill:#171A43;" d="M64.519,356.197c0,13.456,10.909,24.365,24.365,24.365c13.456,0,24.365-10.908,24.365-24.365
							c0-13.457-10.909-24.366-24.365-24.366C75.427,331.831,64.519,342.74,64.519,356.197z"/>
						<path style="fill:#00BFB5;" d="M78.071,356.197c0,5.972,4.841,10.813,10.813,10.813c5.972,0,10.813-4.841,10.813-10.813
							s-4.841-10.813-10.813-10.813C82.912,345.384,78.071,350.225,78.071,356.197z"/>
						<path style="fill:#007E89;" d="M82.756,356.197c0,3.384,2.744,6.127,6.128,6.127c3.384,0,6.127-2.743,6.127-6.127
							c0-3.385-2.744-6.128-6.127-6.128C85.5,350.069,82.756,352.812,82.756,356.197z"/>
					</g>
					<g>
						<path style="fill:#171A43;" d="M198.783,356.197c0,13.456,10.909,24.365,24.365,24.365c13.456,0,24.365-10.908,24.365-24.365
							c0-13.457-10.909-24.366-24.365-24.366C209.692,331.831,198.783,342.74,198.783,356.197z"/>
						<path style="fill:#00BFB5;" d="M212.335,356.197c0,5.972,4.841,10.813,10.813,10.813c5.972,0,10.813-4.841,10.813-10.813
							s-4.841-10.813-10.813-10.813C217.176,345.384,212.335,350.225,212.335,356.197z"/>
						<path style="fill:#007E89;" d="M217.021,356.197c0,3.384,2.743,6.127,6.127,6.127c3.384,0,6.128-2.743,6.128-6.127
							c0-3.385-2.744-6.128-6.128-6.128C219.764,350.069,217.021,352.812,217.021,356.197z"/>
					</g>
				</g>
			</g>
		</g>
	</g>
	<g>
		<ellipse style="opacity:0.2;fill:#171A43;" cx="352.71" cy="465.82" rx="73.73" ry="8.647"/>
		<g>
			<g>
				<g>
					<path style="fill:#171A43;" d="M333.367,418.427c0,0-5.763,47.158-8.919,47.957c-2.364,0.599-77.099,1.803-10.341-10.858
						l4.106-45.318L333.367,418.427z"/>
					<path style="fill:#171A43;" d="M376.062,415.678c0,0-1.589,47.483,1.406,48.76c2.243,0.956,75.896,13.689,11.894-9.131
						l2.942-45.408L376.062,415.678z"/>
				</g>
				<g>
					<path style="fill:#007E89;" d="M326.07,266.193c0,0-14.202,140.339-15.732,181.542c0,0,16.499,3.469,19.712,3.334
						l25.038-152.144l8.084,0.965l10.634,151.813c0,0,10.126,1.417,19.683-0.945c0,0,0.999-85.584,3.927-186.921
						C400.343,162.5,326.07,266.193,326.07,266.193z"/>
					<g style="opacity:0.2;">
						<path style="fill:#171A43;" d="M324.071,286.284c-3.969,40.316-12.562,129.917-13.733,161.451c0,0,16.499,3.469,19.712,3.334
							l25.038-152.144C355.087,298.925,337.391,293.754,324.071,286.284z"/>
						<path style="fill:#171A43;" d="M397.11,274.614c0.1-3.571,0.201-7.163,0.306-10.777c2.928-101.337-71.346,2.356-71.346,2.356
							s-0.144,1.419-0.4,3.979C340.188,274.732,366.916,280.542,397.11,274.614z"/>
					</g>
				</g>
			</g>
			<g>
				<g>
					<g>
						<path style="fill:#FFA099;" d="M364.269,130.247c0,0,0.425,10.041-2.338,13.611s-25.932,0.669-26.782,14.503
							c-0.85,13.834,70.144,15.842,76.734,8.702c6.589-7.14-4.532-18.912-13.604-20.081c-12.116-1.562-13.391-9.594-11.691-24.767
							S364.269,130.247,364.269,130.247z"/>
						<path style="fill:#DB8583;" d="M360.723,144.676c9.078-2.934,17.858-6.659,25.266-12.728
							c-0.046-2.837,0.188-6.076,0.598-9.734c1.701-15.173-22.319,8.033-22.319,8.033s0.425,10.041-2.338,13.611
							C361.684,144.178,361.267,144.444,360.723,144.676z"/>
					</g>
					<path style="fill:#FFA099;" d="M342.277,86.623c0,0-7.924,36.793,5.331,43.756c13.255,6.963,41.35,13.53,43.655-21.917
						c2.305-35.448-14.696-44.943-31.409-40.828C343.142,71.747,342.277,86.623,342.277,86.623z"/>
				</g>
				<g>
					<g>
						<g>
							<path style="fill:#DB8583;" d="M357.333,99.757c0,0-0.174,0.718-0.543,1.743c-0.362,1.028-0.915,2.367-1.534,3.674
								c-0.624,1.304-1.313,2.578-1.883,3.507c-0.563,0.933-1.012,1.52-1.012,1.52s0.173-0.718,0.542-1.744
								c0.362-1.029,0.916-2.366,1.535-3.673c0.624-1.304,1.314-2.577,1.884-3.507C356.886,100.345,357.333,99.757,357.333,99.757z"
								/>
						</g>
						<g>
							<path style="fill:#171A43;" d="M343.502,102.736c0,0-0.054-0.278-0.083-0.772c-0.025-0.493-0.03-1.206,0.119-2.056
								c0.074-0.425,0.176-0.888,0.35-1.367c0.169-0.479,0.4-0.983,0.729-1.471c0.359-0.466,0.772-0.973,1.371-1.296l0.448-0.24
								c0.158-0.061,0.325-0.105,0.489-0.155c0.329-0.121,0.665-0.136,1.004-0.156l0.253-0.009l0.032-0.001l0.016,0l0.008,0
								l0.097,0.009l0.051,0.008l0.101,0.017l0.405,0.067c0.071,0.014,0.127,0.016,0.21,0.04l0.275,0.097
								c0.182,0.068,0.363,0.141,0.537,0.219c0.616,0.362,1.108,0.895,1.368,1.459c0.308,0.551,0.402,1.119,0.48,1.632
								c0.063,0.515,0.05,0.994,0.016,1.427c-0.072,0.866-0.268,1.552-0.422,2.021c-0.159,0.469-0.286,0.722-0.286,0.722
								s-0.017-0.279-0.048-0.766c-0.035-0.481-0.09-1.164-0.216-1.944c-0.071-0.389-0.166-0.798-0.283-1.208
								c-0.139-0.399-0.302-0.809-0.533-1.137c-0.201-0.367-0.538-0.557-0.834-0.756c-0.077-0.021-0.148-0.046-0.219-0.078
								l-0.105-0.052c-0.047-0.016-0.129-0.019-0.192-0.03l-0.407-0.053l-0.102-0.013l-0.051-0.007
								c0.177,0.018,0.046,0.005,0.084,0.009l-0.005,0.001l-0.01,0.001l-0.02,0.002l-0.157,0.014
								c-0.21,0.007-0.425-0.004-0.614,0.07c-0.097,0.027-0.199,0.043-0.295,0.074l-0.271,0.138
								c-0.362,0.179-0.693,0.462-0.993,0.778c-0.273,0.348-0.545,0.702-0.761,1.084c-0.21,0.383-0.404,0.761-0.569,1.122
								c-0.322,0.727-0.556,1.371-0.716,1.826C343.592,102.472,343.502,102.736,343.502,102.736z"/>
						</g>
						<g>
							<path style="fill:#171A43;" d="M363.958,103.381c0,0-0.054-0.278-0.083-0.772c-0.025-0.493-0.03-1.206,0.119-2.056
								c0.074-0.425,0.176-0.888,0.35-1.366c0.169-0.479,0.4-0.983,0.729-1.471c0.359-0.466,0.772-0.973,1.371-1.296l0.448-0.241
								c0.158-0.061,0.325-0.105,0.489-0.155c0.329-0.121,0.665-0.136,1.004-0.156l0.253-0.009l0.032-0.001l0.016,0l0.008,0
								l0.097,0.009l0.051,0.008l0.101,0.017l0.405,0.068c0.071,0.014,0.127,0.016,0.21,0.04l0.275,0.097
								c0.182,0.068,0.363,0.141,0.537,0.219c0.616,0.362,1.108,0.895,1.368,1.459c0.308,0.551,0.402,1.119,0.48,1.632
								c0.063,0.515,0.051,0.994,0.016,1.427c-0.072,0.866-0.268,1.552-0.422,2.021c-0.159,0.469-0.286,0.722-0.286,0.722
								s-0.017-0.279-0.048-0.766c-0.035-0.481-0.09-1.164-0.216-1.944c-0.071-0.389-0.166-0.798-0.283-1.208
								c-0.139-0.399-0.302-0.809-0.533-1.137c-0.201-0.367-0.538-0.557-0.834-0.756c-0.077-0.021-0.148-0.046-0.219-0.078
								l-0.105-0.052c-0.047-0.015-0.129-0.019-0.192-0.03l-0.407-0.053l-0.102-0.013l-0.051-0.007
								c0.177,0.018,0.046,0.005,0.084,0.009l-0.005,0.001l-0.01,0.001l-0.02,0.002l-0.157,0.014
								c-0.21,0.007-0.425-0.003-0.614,0.07c-0.097,0.027-0.198,0.043-0.295,0.074l-0.271,0.138
								c-0.362,0.179-0.693,0.462-0.993,0.778c-0.273,0.347-0.545,0.702-0.761,1.084c-0.21,0.382-0.404,0.761-0.569,1.122
								c-0.322,0.727-0.556,1.371-0.716,1.826C364.048,103.118,363.958,103.381,363.958,103.381z"/>
						</g>
					</g>
					<g>
						<path style="fill:#FFFFFF;" d="M382.187,109.965c0,0-19.234-4.985-26.798-5.46c-5.708-0.358-12.89,2.391-16.072,3.763
							c-0.785,10.954,2.025,21.636,7.86,24.959c8.435,4.804,22.205,7.594,31.985,0C382.835,123.02,382.187,109.965,382.187,109.965z
							"/>
						<path style="fill:#E5E5E5;" d="M354.886,132.085c-2.976-0.109-6.634-0.388-10.344-1.092c0.796,0.919,1.669,1.685,2.633,2.234
							c8.435,4.804,22.205,7.594,31.985,0c1.636-4.545,2.414-9.652,2.774-13.922C375.151,127.465,365.461,132.473,354.886,132.085z"
							/>
						<path style="fill:none;stroke:#E5E5E5;stroke-width:0.906;stroke-miterlimit:10;" d="M375.919,109.727
							c0,0,9.077,1.662,12.967-2.374l2.377,6.646c0,0-5.403,11.394-13.399,15.192"/>
						<path style="fill:none;stroke:#FFFFFF;stroke-width:0.906;stroke-miterlimit:10;" d="M375.919,109.727
							c0,0,9.077,1.662,12.967-2.374"/>
					</g>
					<g>
						<path style="fill:#FFA099;" d="M389.534,101.419c0,0,4.177-6.111,7.643-0.476c3.466,5.635-1.016,14.665-6.932,13.416
							C386.293,113.525,389.534,101.419,389.534,101.419z"/>
						<path style="fill:#171A43;" d="M381.322,89.076c0,0-2.593,10.207,4.971,13.056l-0.648,6.409l2.81-0.237
							c0,0,0.432-9.732,5.835-9.495l0.216-9.258L381.322,89.076z"/>
						<g>
							<path style="fill:#DB8583;" d="M390.191,112.078c0.408-0.217,0.798-0.465,1.138-0.753c0.167-0.147,0.322-0.306,0.436-0.48
								c0.11-0.173,0.197-0.359,0.185-0.531c0.017-0.086-0.009-0.17-0.041-0.251c-0.01-0.084-0.075-0.159-0.129-0.235
								c-0.045-0.079-0.107-0.152-0.192-0.216c-0.078-0.066-0.147-0.136-0.228-0.199c-0.184-0.112-0.35-0.239-0.544-0.339
								l-0.592-0.288l-0.229-0.111l0.023-0.259c0.114-1.285,0.312-2.544,0.647-3.794c0.164-0.625,0.362-1.246,0.638-1.851
								c0.279-0.598,0.593-1.216,1.176-1.706c0.287-0.239,0.679-0.435,1.104-0.447c0.431-0.018,0.799,0.142,1.114,0.344l0.392,0.266
								l0.402,0.365c0.242,0.259,0.451,0.538,0.597,0.856c0.301,0.629,0.377,1.333,0.271,1.98c-0.097,0.648-0.305,1.268-0.636,1.813
								c0.39-1.187,0.462-2.537-0.149-3.518c-0.15-0.241-0.34-0.458-0.543-0.643l-0.318-0.25l-0.412-0.233
								c-0.221-0.114-0.467-0.208-0.675-0.178c-0.21,0.019-0.411,0.124-0.598,0.295c-0.374,0.344-0.676,0.871-0.908,1.418
								c-0.233,0.551-0.428,1.133-0.597,1.725c-0.327,1.186-0.584,2.417-0.775,3.638l-0.206-0.37l0.623,0.368
								c0.205,0.128,0.397,0.296,0.592,0.442c0.092,0.087,0.176,0.19,0.262,0.285c0.091,0.088,0.167,0.198,0.227,0.327
								c0.065,0.121,0.136,0.236,0.151,0.387c0.034,0.142,0.052,0.283,0.016,0.427c-0.029,0.291-0.202,0.521-0.364,0.708
								c-0.171,0.187-0.368,0.331-0.569,0.459C391.075,111.783,390.638,111.958,390.191,112.078z"/>
						</g>
					</g>
				</g>
				<g>
					<path style="fill:#FF685B;" d="M356.468,61.658c-13.688,1.678-14.898,21.903-15.004,25.882
						c-61.893,3.098,53.873,6.78,53.873,6.78C398.571,63.793,371.655,59.797,356.468,61.658z"/>
					<path style="fill:#D65650;" d="M395.338,94.32c-46.619-3-53.873-6.78-53.873-6.78C279.572,90.638,395.338,94.32,395.338,94.32z
						"/>
				</g>
			</g>
			<g>
				<g>
					<path style="fill:#FF685B;" d="M353.283,145.711c0,0,4.254,10.765,17.49,11.254c13.236,0.489,20.799-12.722,20.799-12.722
						s17.963,1.957,21.745,12.722c3.782,10.765-9.454,111.075-9.454,111.075s-45.853,10.765-82.725-3.425
						c0,0,6.145-88.567,7.091-95.417C329.175,162.348,330.12,146.69,353.283,145.711z"/>
					<path style="fill:#D65650;" d="M365.769,212.211c-13.705,3.244-27.541,5.629-41.454,7.463
						c-1.649,22.927-3.177,44.943-3.177,44.943c36.872,14.19,82.725,3.425,82.725,3.425s5.392-40.867,8.31-73.232
						C397.505,202.821,381.51,208.485,365.769,212.211z"/>
					<path style="fill:#D65650;" d="M370.391,159.457c13.34,0.502,22.064-10.336,24.941-14.549
						c-2.241-0.497-3.759-0.665-3.759-0.665s-7.563,13.212-20.799,12.722c-13.236-0.489-17.49-11.254-17.49-11.254
						c-1.531,0.065-2.959,0.197-4.302,0.384C350.549,149.219,356.523,158.935,370.391,159.457z"/>
				</g>
				<g>
					<g>
						<g>
							
								<rect x="281.635" y="169.656" transform="matrix(0.0856 -0.9963 0.9963 0.0856 77.8385 521.0111)" style="fill:#FFDE76;" width="82.27" height="96.885"/>
							
								<rect x="265.246" y="184.697" transform="matrix(0.0856 -0.9963 0.9963 0.0856 64.2561 503.3949)" style="fill:#FFF6A6;" width="82.27" height="63.987"/>
							
								<rect x="350.138" y="183.319" transform="matrix(0.0856 -0.9963 0.9963 0.0856 140.2435 529.1085)" style="fill:#E0C169;" width="16.492" height="9.658"/>
						</g>
						<path style="fill:#FFFFFF;" d="M273.059,230.915c0,0-3.219-0.42-2.239-6.438c0,0-1.536-5.881,1.4-7.838
							c0,0-1.317-3.075,2.597-3.401c3.915-0.326,14.353,3.262,0.652,3.262c0,0,27.122,4.338-0.326,3.588
							c0,0,26.049,3.689-0.326,3.262c0,0,19.657,3.926-0.979,2.936L273.059,230.915z"/>
					</g>
					<g>
						<g>
							<path style="fill:#FFA099;" d="M419.655,178.007l-26.913,1.957l1.957,31.806l-43.264,13.167
								c0.157,0.687,0.263,1.393,0.309,2.115c0.248,3.938,0.578,7.87,0.87,11.803c24.948-1.007,63.587-4.427,66.062-8.003
								C423.08,224.492,419.655,178.007,419.655,178.007z"/>
							<path style="fill:#DB8583;" d="M355.853,223.592l-4.417,1.344c0.157,0.687,0.263,1.393,0.309,2.115
								c0.248,3.938,0.578,7.87,0.87,11.803c1.792-0.072,3.66-0.158,5.574-0.255C357.384,233.601,356.585,228.601,355.853,223.592z"
								/>
							<path style="fill:#DB8583;" d="M420.597,195.224c-0.376-9.541-0.942-17.217-0.942-17.217l-26.913,1.957l0.934,15.174
								C402.65,195.146,411.623,195.176,420.597,195.224z"/>
						</g>
						<path style="fill:#FFFFFF;" d="M353.611,223.349l-4.229,1.294c-18.579-7.783-4.645,0.519-4.645,0.519
							c-31.998,0-3.097,3.113-3.097,3.113c-29.934,0-0.516,3.632-0.516,3.632c-35.095,2.076,1.032,3.632,1.032,3.632
							c-22.876,3.557-9.109,4.188,13.031,3.181C354.72,233.592,354.188,228.468,353.611,223.349z"/>
						<path style="fill:#FF685B;" d="M388.339,193.175l34.742-3.915c0,0,3.868-39.284-28.404-44.353L388.339,193.175z"/>
					</g>
				</g>
			</g>
		</g>
	</g>
</g>
</svg>
