<?xml version="1.0" encoding="utf-8"?>
<!-- Generator: Adobe Illustrator 27.5.0, SVG Export Plug-In . SVG Version: 6.00 Build 0)  -->
<svg version="1.1" id="Слой_1" xmlns="http://www.w3.org/2000/svg" xmlns:xlink="http://www.w3.org/1999/xlink" x="0px" y="0px"
	 viewBox="0 0 3330 2000" style="enable-background:new 0 0 3330 2000;" xml:space="preserve">
<g>
	<rect style="fill:#FFFFFF;" width="3330" height="2000"/>
	<path style="fill:#95A6DB;" d="M3107.388,1903.797H89.603c-8.622,0-15.611-6.99-15.611-15.611v-0.001
		c0-8.621,6.989-15.61,15.61-15.61H3107.39c8.621,0,15.61,6.989,15.61,15.61l0,0C3123,1896.807,3116.01,1903.797,3107.388,1903.797z
		"/>
	<g>
		<path style="fill:#B8C6F2;" d="M832.155,458.89h392.304c30.945,0,56.032-25.087,56.032-56.033V235.451
			c0-30.946-25.087-56.033-56.032-56.033H832.155c-30.946,0-56.033,25.086-56.033,56.033v167.406
			C776.122,433.803,801.209,458.89,832.155,458.89z"/>
		<path style="fill:#B8C6F2;" d="M847.547,446.368v104.041c0,8.352,11.238,11.042,15.022,3.596l54.681-107.637H847.547z"/>
		<path style="fill:#FFFFFF;" d="M841.89,266.762H1210c14.157,0,25.633-11.476,25.633-25.634l0,0
			c0-14.156-11.476-25.633-25.633-25.633H841.89c-14.157,0-25.633,11.477-25.633,25.633l0,0
			C816.257,255.285,827.732,266.762,841.89,266.762z"/>
		<path style="fill:#FFFFFF;" d="M841.89,348.074H1210c14.157,0,25.633-11.477,25.633-25.634v0.001
			c0-14.157-11.476-25.634-25.633-25.634H841.89c-14.157,0-25.633,11.477-25.633,25.634v-0.001
			C816.257,336.597,827.732,348.074,841.89,348.074z"/>
		<path style="fill:#FFFFFF;" d="M838.126,429.385h236.229c12.078,0,21.87-9.791,21.87-21.869v-7.526
			c0-12.079-9.792-21.87-21.87-21.87H838.126c-12.078,0-21.869,9.791-21.869,21.869v7.527
			C816.257,419.595,826.048,429.385,838.126,429.385z"/>
	</g>
	<g>
		<g>
			<path style="fill:#B8C6F2;" d="M2828.23,1331.921c-0.036-4.015-0.073-7.646-0.098-10.871c-0.099-10.946-4.1-21.474-11.278-29.735
				c-85.234-97.941-443.191-525.496-557.643-633.274c-35.471-33.723-96.943-42.845-198.443-42.845c0,0-1636.736,0-1698.554,0
				c-107.828,0-146.463,58.297-146.463,181.575c0,88.154,8.082,700.616,8.082,700.616s18.234,216.365,56.078,230.473
				c7.719,2.877,2509.695,18.418,2526.207-8.975c16.511-27.395,21.718-203.504,21.718-203.504
				c0.185-14.885,0.333-29.635,0.432-44.016C2828.675,1413.783,2828.453,1362.146,2828.23,1331.921z"/>
			<path style="fill:#5E8ADB;" d="M2828.37,1494.158c0,0,2.181,203.93-11.527,223.281c-15.539,16.488-39.291,26.806-65.114,28.282
				c-27.104,3.722-239.892,1.985-239.892,1.985s-2195.474-16.375-2231.925-19.848c-36.451-3.474-50.782-27.042-52.029-60.782
				c0-7.194-3.426-119.579-4.049-183.587L2828.37,1494.158z"/>
			<g>
				
					<ellipse transform="matrix(0.7071 -0.7071 0.7071 0.7071 -462.1899 2145.335)" style="fill:#3A3D96;" cx="2358.553" cy="1630.58" rx="241.994" ry="241.994"/>
				
					<ellipse transform="matrix(0.9871 -0.1602 0.1602 0.9871 -230.7348 398.8528)" style="fill:#B8C6F2;" cx="2358.553" cy="1630.58" rx="176.45" ry="176.449"/>
				<circle style="fill:#98B0F2;" cx="2358.554" cy="1630.58" r="95.129"/>
			</g>
			<g>
				
					<ellipse transform="matrix(0.7071 -0.7071 0.7071 0.7071 -986.6943 879.0693)" style="fill:#3A3D96;" cx="567.783" cy="1630.58" rx="241.994" ry="241.994"/>
				<circle style="fill:#B8C6F2;" cx="567.783" cy="1630.58" r="176.449"/>
				<circle style="fill:#98B0F2;" cx="567.783" cy="1630.58" r="95.129"/>
			</g>
			<path style="fill:#5E8ADB;" d="M2409.538,1123.448h-485.271c-14.994,0-27.148-12.155-27.148-27.147V773.823
				c0-24.653,19.984-44.64,44.638-44.64h167.357c44.863,0,87.059,21.31,113.688,57.414l211.818,287.182
				C2449.798,1094.356,2435.105,1123.448,2409.538,1123.448z"/>
			<path style="fill:#98B0F2;" d="M2481.427,1075.796c0,38.571-39.606,69.838-88.461,69.838c-48.855,0-88.461-31.267-88.461-69.838
				c0-38.57,39.605-69.837,88.461-69.837C2441.82,1005.959,2481.427,1037.226,2481.427,1075.796z"/>
			<path style="fill:#FAAF16;" d="M2828.269,1471.365h-25.399c-38.513,0-69.723-31.223-69.723-69.723
				c0-19.256,7.806-36.689,20.413-49.297c12.62-12.619,30.054-20.425,49.31-20.425h25.361
				C2828.453,1362.146,2828.675,1413.783,2828.269,1471.365z"/>
			<path style="fill:#272A66;" d="M967.587,1537.35h716.204c21.454,0,38.846-17.392,38.846-38.846V721.493
				c0-21.455-17.392-38.845-38.846-38.845H967.587c-21.454,0-38.845,17.391-38.845,38.845v777.011
				C928.742,1519.958,946.133,1537.35,967.587,1537.35z"/>
			<rect x="1191.041" y="845.968" style="fill:#313480;" width="343.08" height="689.483"/>
			<rect x="1057.419" y="1005.959" style="fill:#3A3D96;" width="341.047" height="529.492"/>
			<rect x="1328.438" y="1155.803" style="fill:#4043A6;" width="357.704" height="379.648"/>
			<g>
				<path style="fill:#98B0F2;" d="M362.326,1535.451h716.204c21.454,0,38.846-17.392,38.846-38.846V719.595
					c0-21.454-17.392-38.845-38.846-38.845H362.326c-21.454,0-38.846,17.392-38.846,38.845v777.011
					C323.48,1518.06,340.872,1535.451,362.326,1535.451z"/>
				<rect x="323.48" y="1253.125" style="fill:#B8C6F2;" width="793.896" height="78.796"/>
				<path style="fill:#5E8ADB;" d="M977.786,1123.448H445.29c-31.431,0-56.91-25.479-56.91-56.911V786.095
					c0-31.431,25.479-56.911,56.91-56.911h532.496c31.431,0,56.911,25.48,56.911,56.911v280.442
					C1034.697,1097.969,1009.217,1123.448,977.786,1123.448z"/>
			</g>
		</g>
		<g id="c_40_">
			<g>
				<polygon id="v-2_7_" style="fill:#F37A50;" points="703.151,701.924 703.193,701.924 738.609,702.055 746.631,785.706 
					705.287,807.535 661.199,785.951 668.325,702.055 				"/>
				<g>
					<g>
						<path style="fill:#F37A50;" d="M632.767,642.262c8.057,60.66,53.21,104.706,100.854,98.378
							c47.642-6.329,79.732-60.633,71.675-121.294c-8.056-60.661-53.209-104.705-100.852-98.378
							C656.8,527.296,624.71,581.601,632.767,642.262z"/>
						<path style="fill:#DE623C;" d="M749.029,643.583c8.762,11.416,19.812,25.31,19.812,25.31s-3.211,13.24-20.094,15.047
							c6.869-3.647,13.479-9.142,9.645-18.397C754.558,656.288,749.029,643.583,749.029,643.583z"/>
						<path style="fill:#201D40;" d="M613.114,593.495c-5.167-57.797,47.979-76.776,47.979-76.776s-11.903-4.186-9.017-21.66
							c8.396,5.161,18.669,7.549,28.476,6.578c66.08-6.545,107.676,4.321,101.101,30.221c-2.339,9.215,40.525,13.939,21.434,75.089
							c-4.085-7.221-7.757-34.324-20.606-40.293c-12.896-5.99-5.244,15.159-34.43,11.872c-29.449-3.316-48.62-15.536-70.076-3.903
							c-17.154,10.542-38.609,80.911-37.628,85.723C638.1,649.31,615.386,618.894,613.114,593.495z"/>
						<path style="fill:#201D40;" d="M805.762,652.463c0,0-5.629,32.965-12.825,41.773c-1.559-14.191-32.689-5.263-46.216-4.076
							c-24.496,2.149-49.362-19.589-57.614,12.583c-31.194,1.808-42.549-66.865-42.549-66.865
							c-19.189,68.626,15.165,118.682,90.795,125.654C787.181,766.127,814.778,702.534,805.762,652.463z"/>
						<path d="M713.696,639.991c-4.641,0.311-8.655-3.199-8.968-7.838c-0.312-4.641,3.198-8.656,7.839-8.969
							c4.641-0.311,8.655,3.199,8.967,7.839C721.847,635.663,718.337,639.679,713.696,639.991z"/>
						<path d="M783.235,637.425c-4.641,0.312-8.655-3.198-8.968-7.839c-0.311-4.64,3.198-8.655,7.839-8.967
							c4.641-0.312,8.655,3.198,8.967,7.837C791.386,633.099,787.876,637.113,783.235,637.425z"/>
						<g>
							<path style="fill:#201D40;" d="M797.224,619.845c-1.424,0.096-2.859-0.541-3.727-1.802c-2.386-3.471-5.128-5.463-8.149-5.921
								c-5.221-0.792-10.087,2.984-10.136,3.022c-1.806,1.422-4.431,1.125-5.862-0.672c-1.432-1.798-1.151-4.409,0.639-5.85
								c0.31-0.248,7.661-6.072,16.518-4.776c5.438,0.796,10.106,3.98,13.876,9.464c1.308,1.9,0.826,4.501-1.075,5.81
								C798.666,619.559,797.946,619.797,797.224,619.845z"/>
						</g>
						<g>
							<path style="fill:#201D40;" d="M694.702,626.555c-0.914,0.062-1.855-0.176-2.665-0.74c-1.893-1.319-2.359-3.923-1.041-5.817
								c5.02-7.207,10.833-11.336,17.28-12.273c8.317-1.211,14.412,3.562,14.668,3.765c1.804,1.439,2.099,4.068,0.659,5.871
								c-1.434,1.794-4.042,2.095-5.843,0.681c-0.13-0.096-3.741-2.755-8.387-2.032c-4.031,0.626-7.908,3.576-11.522,8.764
								C697.099,625.858,695.924,626.474,694.702,626.555z"/>
						</g>
						<g>
							<path style="fill:#F37A50;" d="M645.76,636.159c10.426,9.918,12.299,24.875,4.183,33.407
								c-8.116,8.533-23.147,7.409-33.573-2.507c-10.427-9.917-12.3-24.875-4.184-33.408
								C620.302,625.119,635.333,626.242,645.76,636.159z"/>
							<g>
								<path style="fill:#DE623C;" d="M636.341,665.5c0.443-0.169,0.854-0.44,1.197-0.81c4.914-5.342,5.967-11.788,2.817-17.245
									c-3.225-5.586-9.94-8.664-15.964-7.317c-1.696,0.38-2.763,2.061-2.384,3.757s2.061,2.762,3.757,2.383
									c3.302-0.737,7.317,1.162,9.142,4.323c1.753,3.038,1.043,6.531-2,9.838c-1.176,1.279-1.094,3.27,0.185,4.446
									C633.999,665.709,635.264,665.91,636.341,665.5z"/>
							</g>
						</g>
						<path style="fill:#FFFFFF;" d="M719.459,699.611c-0.348-2.169,0.14-4.229,2.318-3.951c5.538,0.706,14.697,1.682,23.447,1.752
							c8.749,0.07,17.922-0.759,23.472-1.376c2.183-0.243,2.699,1.837,2.255,3.987c-1.84,8.906-11.941,18.843-25.353,18.736
							C732.188,718.652,720.754,707.683,719.459,699.611z"/>
					</g>
				</g>
			</g>
			<path d="M767.781,1797.439c31.315,43.207,108.219,16.694,105.673,75.135H707.903c0.154-13.424,2.467-45.282,5.163-57.753
				L767.781,1797.439z"/>
			<path d="M592.808,1797.439c31.315,43.206,108.219,16.694,105.673,75.135h-165.55c0.153-13.423,2.466-45.282,5.163-57.754
				L592.808,1797.439z"/>
			<path style="fill:#062440;" d="M821.919,1136.676c0,0,18.987,276.928,11.273,338.494
				c-7.714,61.568-35.027,140.498-31.933,344.141c-38.123,9.545-93.357,0-93.357,0s-8.189-230.266,32.112-333.113
				c-16.387-99.903-68.975-328.721-68.975-328.721L821.919,1136.676z"/>
			<path style="fill:#2C2858;" d="M749.758,1144.246c0,0-38.34,310.896-57.108,369.865
				c-18.767,58.969-35.099,102.168-69.077,302.779c-39.178,1.961-95.763,0.746-95.763,0.746s5.121-248.551,66.139-306.42
				c2.065-101.309-9.866-364.975-9.866-364.975L749.758,1144.246z"/>
			<g id="v_7_">
				<path id="h-5_4_" style="fill:#E62552;" d="M573.015,791.402c0,0,66.589-23.314,88.794-12.622c68.996,33.223,84.822,0,84.822,0
					c22.048,1.903,88.603,12.622,88.603,12.622c0,74.326,4.963,148.91,3.609,205.156c-0.952,48.983,8.383,182.279,8.383,182.279
					s-73.415,19.247-142.865,19.748c-69.451-0.451-140.137-18.968-140.137-18.968s3.71-135.007,6.794-185.187
					C570.016,938.185,573.015,865.528,573.015,791.402z"/>
			</g>
			<g id="c_48_">
				<path id="c_49_" style="fill:#C4204A;" d="M953.602,901.87c-27.485-65.577-109.046-107.288-118.368-110.467l-18.918,84.187
					c39.183,23.17,67.623,48.238,67.623,48.238c-4.821,23.44-4.015,46.431-17.585,76.077c0,0,11.784-16.262,26.323-6.639
					c14.134,9.355,40.128-9.74,40.128-9.74S974.597,951.96,953.602,901.87z"/>
			</g>
			<g id="c_41_">
				<g id="c_44_">
					<g id="c_45_">
						<path id="c_47_" style="fill:#80BC48;" d="M938.286,1067.592c0.475,0.146,0.952,0.24,1.428,0.29h1.564
							c2.865-0.306,5.416-2.264,6.325-5.188l73.273-236.238c0.147-0.474,0.24-0.952,0.291-1.429c0.033-0.316,0.016-0.623,0.01-0.932
							c-0.004-0.187,0.018-0.377,0-0.563c-0.016-0.166-0.066-0.322-0.093-0.485c-0.445-2.686-2.323-5.033-5.099-5.9
							c-0.446-0.139-0.91-0.245-1.393-0.299c-0.54-0.061-1.071-0.054-1.591,0H828.547l-73.917,251.033h183.783L938.286,1067.592z"/>
						<path id="c_46_" style="fill:#17962E;" d="M830.225,817.143c-3.927-1.218-8.098,0.975-9.317,4.9l-72.813,235.649l-0.165,0.553
							c-1.208,3.91,0.972,8.053,4.869,9.285l0.008,0.016c3.926,1.219,8.098-0.975,9.317-4.898l73.001-236.191
							C836.345,822.532,834.151,818.362,830.225,817.143z"/>
					</g>
				</g>
				<path id="c_43_" style="fill:#F37A50;" d="M969.582,967.018c0.689-0.456,1.439-0.745,2.208-0.96
					c-0.079-0.115-0.166-0.223-0.243-0.34c-4.59-6.921-4.282-15.2,0.684-18.49c0.815-0.539,1.711-0.895,2.649-1.108
					c-1.291-5.125-0.135-10.019,3.412-12.367c1.408-0.933,3.042-1.348,4.762-1.33c-1.622-5.036-0.334-10.322,3.637-12.952
					c4.967-3.289,12.169-1.165,16.086,4.743c3.917,5.908,3.064,13.365-1.902,16.655c-1.257,0.832-2.658,1.315-4.112,1.481
					c3.306,6.441,2.639,13.495-1.852,16.469c-0.815,0.54-1.711,0.896-2.648,1.11c1.29,5.125,0.134,10.018-3.413,12.367
					c-1.308,0.866-2.81,1.289-4.395,1.332c1.643,4.405,0.6,9.151-2.892,11.462c-4.195,2.779-10.278,0.986-13.585-4.006
					C964.668,976.095,965.387,969.796,969.582,967.018z"/>
				<path style="fill:#F37A50;" d="M742.81,952.087l16.815-9.743c0,0,4.655-23.849,31.657-24.424
					c-3.093,10.008-7.547,24.424-7.547,24.424s13.289,10.318,44.811-7.34c30.814-6.924,17.651,15.542,27.863,17.155
					c15.07,2.38-10.984,31.994-41.751,36.524c-39.811,5.863-44.535-2.287-44.535-2.287l-22.527,7.873L742.81,952.087z"/>
				<path id="c_42_" style="fill:#C4204A;" d="M570.849,979.828c56.2-3.927,168.44-33.947,168.44-33.947
					c15.342,23.532,11.099,54.789,11.099,54.789c-87.278,76.519-218.632,101.256-258.936,82.838
					c-36.794-16.814-10.657-240.854,81.726-292.162L570.849,979.828z"/>
			</g>
			<path style="fill:#17962E;" d="M867.816,853.012c-3.185,7.977-11.37,12.205-18.282,9.444c-6.912-2.759-9.935-11.462-6.75-19.438
				c3.185-7.977,11.369-12.205,18.282-9.445C867.979,836.333,871.001,845.036,867.816,853.012z"/>
			<path style="fill:#17962E;" d="M891.362,850.304c-1.9,4.758-6.782,7.281-10.906,5.634c-4.124-1.647-5.927-6.838-4.026-11.597
				c1.898-4.758,6.782-7.281,10.906-5.634C891.459,840.354,893.262,845.546,891.362,850.304z"/>
		</g>
		<rect x="1193.074" y="1407.143" style="fill:#DE8914;" width="375.483" height="465.432"/>
		<rect x="886.111" y="1296.908" style="fill:#FF9A16;" width="384.325" height="575.666"/>
		<g>
			<rect x="1031.714" y="1480.115" style="fill:#FAAF16;" width="392.458" height="392.459"/>
			<rect x="1191.041" y="1544.455" style="fill:#FAC352;" width="182.167" height="74.598"/>
			
				<rect x="1071.455" y="1622.619" transform="matrix(0.8749 -0.4842 0.4842 0.8749 -666.0066 745.9809)" style="fill:#FF9A16;" width="79.516" height="79.516"/>
			<path style="fill:#FAC352;" d="M1117.376,1702.447c0,25.219,20.444,45.664,45.663,45.664c25.22,0,45.664-20.445,45.664-45.664
				c0-25.221-20.444-45.664-45.664-45.664C1137.82,1656.783,1117.376,1677.227,1117.376,1702.447z"/>
		</g>
	</g>
	<path style="fill:#E3EAFF;" d="M1669.612,258.221c2.957-66.087,57.478-118.765,124.297-118.765
		c22.563,0,43.719,6.008,61.963,16.502c0.001-0.001,0.002,0.001,0.002,0.001c2.262-32.524,29.358-58.206,62.457-58.206
		c29.681,0,54.537,20.652,60.986,48.369l0,0c7.92-1.91,16.181-2.917,24.684-2.917c44.75,0,82.978,27.934,98.186,67.321
		c8.932-3.533,18.667-5.478,28.858-5.478c24.466,0,46.312,11.189,60.706,28.732c8.002,9.752,0.881,24.441-11.735,24.441H1669.612z"
		/>
	<path style="fill:#E3EAFF;" d="M3177,427.63c0,0.681-0.006,1.358-0.024,2.034h-234.774c6.639-22.9,27.775-39.647,52.822-39.647
		c5.736,0,11.263,0.878,16.457,2.501c13.459-30.258,43.785-51.364,79.043-51.364C3138.287,341.154,3177,379.873,3177,427.63z"/>
	<path style="fill:#E3EAFF;" d="M2763.771,580.834c0,0.897-0.015,1.794-0.056,2.683h-405.106c-0.04-0.889-0.056-1.787-0.056-2.683
		c0-39.579,32.079-71.66,71.649-71.66c7.476,0,14.676,1.146,21.443,3.268c17.536-39.434,57.049-66.925,102.988-66.925
		c47.692,0,88.456,29.629,104.901,71.475c9.779-4.998,20.851-7.818,32.584-7.818C2731.69,509.174,2763.771,541.255,2763.771,580.834
		z"/>
	<path style="fill:#E3EAFF;" d="M458.116,492.375c0,0.898-0.017,1.795-0.057,2.684H52.953c-0.04-0.889-0.057-1.786-0.057-2.684
		c0-39.577,32.081-71.658,71.651-71.658c7.474,0,14.675,1.146,21.443,3.268c17.534-39.434,57.049-66.926,102.986-66.926
		c47.692,0,88.457,29.631,104.901,71.476c9.781-4.998,20.852-7.817,32.586-7.817C426.035,420.717,458.116,452.798,458.116,492.375z"
		/>
	<g>
		<g>
			<path style="fill:#C4204A;" d="M2531.316,775.912c5.007,47.535-43.953,192.938-202.35,198.068
				c4.114-24.019,16.178-62.722,16.178-62.722s8.396-20.858,68.134-100.09C2465.458,741.961,2528.152,745.876,2531.316,775.912z"/>
			<path style="fill:#C4204A;" d="M2374.248,730.427c0,0,15.207,122.097,15.936,187.923c-20.96,24.085-30.764,48.946-61.217,55.629
				c-24.221-61.184-23.301-140.533-6.649-228.549L2374.248,730.427z"/>
			<g>
				<g>
					<polygon style="fill:#5487FF;" points="2342.784,623.064 2322.271,644.39 2293.515,674.287 2271.686,696.989 2309.686,744.358 
						2336.581,727.971 2372.003,706.382 2397.27,690.982 					"/>
				</g>
				<polygon style="fill:#2F61D6;" points="2402.727,697.79 2337.32,616.259 2346.94,610.752 2410.189,689.592 				"/>
				<polygon style="fill:#2F61D6;" points="2351.937,616.98 2405.193,683.365 2412.42,675.358 2361.319,611.662 				"/>
				<polygon style="fill:#2F61D6;" points="2271.681,696.99 2264.027,704.947 2300.256,750.106 2309.684,744.36 				"/>
				<polygon style="fill:#2F61D6;" points="2322.271,644.39 2293.515,674.287 2336.581,727.971 2372.003,706.382 				"/>
			</g>
			<path id="c_4_" style="fill:#F37A50;" d="M2303.675,679.975c0.05-0.783-0.064-1.538-0.25-2.274
				c0.132,0.011,0.261,0.031,0.395,0.04c7.874,0.514,14.553-3.65,14.918-9.298c0.06-0.927-0.07-1.833-0.337-2.708
				c4.835-1.357,8.322-4.623,8.583-8.655c0.104-1.601-0.326-3.144-1.153-4.553c4.918-1.042,8.667-4.601,8.959-9.116
				c0.366-5.649-4.787-10.581-11.509-11.019c-6.72-0.439-12.465,3.786-12.83,9.435c-0.094,1.429,0.172,2.813,0.722,4.089
				c-6.872,0.319-12.37,4.199-12.701,9.308c-0.06,0.926,0.07,1.832,0.336,2.707c-4.834,1.357-8.321,4.622-8.582,8.655
				c-0.098,1.487,0.264,2.926,0.978,4.251c-4.406,0.728-7.826,3.829-8.083,7.799c-0.309,4.771,4.042,8.938,9.72,9.308
				C2298.514,688.313,2303.366,684.746,2303.675,679.975z"/>
			<path style="fill:#F37A50;" d="M2351.207,718.227c-0.87-4.716,0.811-12.443,7.901-20.375c7.093-7.933-0.025-31.753,9.211-27.366
				c9.236,4.385,19.348,29.183,5.209,49.879c-1.849,7.83-1.63,10.836-1.63,10.836l-47.031,13.502l-2.874-7.901L2351.207,718.227z"/>
		</g>
		<polygon style="fill:#FFFFFF;" points="2372.098,1806.556 2356.105,1843.124 2306.865,1815.471 2312.796,1787.959 		"/>
		<polygon style="fill:#FFFFFF;" points="2971.722,1718.939 2944.935,1692.484 2895.534,1727.781 2923.318,1745.232 		"/>
		<path style="fill:#2C2858;" d="M2307.17,1814.03c-36.5,41.232-105.839-3.13-111.17,58.042
			c114.8,13.295,162.368,19.928,162.368,19.928c1.647-13.998,3.646-47.459,2.672-60.771L2307.17,1814.03z"/>
		<path style="fill:#2C2858;" d="M2923.318,1745.232c6.515,54.996-76.457,80.206-33.371,125.092
			c88.744-77.432,126.374-108.768,126.374-108.768c-9.566-10.592-33.761-34.453-44.6-42.617L2923.318,1745.232z"/>
		<path style="fill:#0E6A41;" d="M2505.184,1109.415l145.039,98.377c0,0-127.277,229.792-205.126,300.639
			c-13.552,12.333-105.719-11.618-109.483-28.145C2321.886,1420.039,2505.184,1109.415,2505.184,1109.415z"/>
		<path style="fill:#0E6A41;" d="M2456.343,1493.864c6.009,115.483-81.268,319.197-81.268,319.197s-53.433-6.54-86.314-27.837
			c36.856-188.63,26.063-249.672,46.899-317.054C2364.908,1430.396,2447.619,1428.792,2456.343,1493.864z"/>
		<path style="fill:#3F964F;" d="M2525.997,1135.85l177.382-29.139c0,0,40.626,200.086,30.306,353.849
			c-1.262,18.79-85.917,77.165-98.926,67.069C2587.337,1490.818,2525.997,1135.85,2525.997,1135.85z"/>
		<path style="fill:#3F964F;" d="M2724.665,1439.326c101.78,55.634,227.429,254.352,227.429,254.352s-19.897,29.846-49.743,49.743
			c-152.249-120.112-224.543-178.549-273.22-221.31C2640.626,1473.039,2664.474,1412.677,2724.665,1439.326z"/>
		<g>
			<path style="fill:#F37A50;" d="M2486.807,770.96c-7.455,14.636,72.394,13.996,77.747-14.512
				c5.354-28.507-26.178-98.214-26.178-98.214l-67.603,28.202C2470.773,686.435,2496.508,751.913,2486.807,770.96z"/>
			<g>
				<path style="fill:#F37A50;" d="M2565.711,599.56c-1.644,57.781-51.841,104.463-97.222,103.171
					c-45.382-1.292-68.763-50.067-67.121-107.848c1.646-57.782,39.769-103.577,85.15-102.285
					C2531.9,493.891,2567.356,541.779,2565.711,599.56z"/>
				<path style="fill:#DE623C;" d="M2436.784,613.483c-3.584,13.113-8.283,29.211-8.283,29.211s7.538,10.429,22.948,5.98
					c-7.311-0.736-15.054-3.179-15.008-12.642C2436.488,626.568,2436.784,613.483,2436.784,613.483z"/>
				<path style="fill:#201D40;" d="M2542.512,633.817c-26.181-28.626-11.273-65.539-11.273-65.539
					c-14.423-0.977-19.246,4.6-19.246,4.6c-9.729-14.74-5.268-26.797-5.268-26.797c-30.534-7.521-42.538,13.182-67.919,22.951
					c-34.758,13.378-80.964,4.86-90.85-38.411c-1.432-6.265,5.007-11.283,10.766-8.433c5.342,2.643,12.212,4.449,20.3,3.158
					c0,0-8.63-7.498-10.551-19.183c-1.06-6.444,6.068-10.931,11.589-7.439c8.273,5.235,22.888,9.291,46.965,1.438
					c16.023-5.227,47.275-32.12,71.374-30.048c19.7,1.694,39.94,11.666,49.533,34.137c0,0,39.244-1.123,50.606,50.094
					c16.488,74.317-58.264,110.836-58.264,110.836S2540.298,652.073,2542.512,633.817z"/>
				<g>
					<path style="fill:#F37A50;" d="M2527.73,597.152c-10.856,8.179-14.233,22.011-7.539,30.896
						c6.694,8.885,20.922,9.456,31.778,1.278c10.856-8.179,14.231-22.012,7.538-30.897
						C2552.815,589.544,2538.588,588.972,2527.73,597.152z"/>
					<g>
						<path style="fill:#DE623C;" d="M2533.396,625.704c-0.397-0.206-0.754-0.504-1.034-0.891
							c-4.036-5.543-4.327-11.706-0.779-16.485c3.629-4.896,10.263-7.056,15.771-5.142c1.55,0.542,2.37,2.233,1.83,3.784
							c-0.539,1.55-2.233,2.369-3.782,1.831c-3.019-1.05-6.992,0.298-9.046,3.067c-1.974,2.661-1.687,6.016,0.812,9.449
							c0.966,1.327,0.674,3.186-0.654,4.152C2535.571,626.153,2534.362,626.205,2533.396,625.704z"/>
					</g>
				</g>
				<path d="M2460.861,610.225c0.359,3.08,4.21,5.163,8.6,4.651s7.655-3.425,7.298-6.505c-0.361-3.081-4.21-5.165-8.6-4.652
					C2463.77,604.23,2460.502,607.144,2460.861,610.225z"/>
				<path d="M2407.411,616.168c0.34,2.907,3.973,4.873,8.114,4.39c4.144-0.483,7.226-3.231,6.886-6.139
					c-0.339-2.908-3.971-4.872-8.114-4.39C2410.156,610.513,2407.073,613.261,2407.411,616.168z"/>
				<g>
					<path style="fill:#201D40;" d="M2481.77,597.315c1.444-0.168,2.759-1.088,3.364-2.523c0.891-2.12-0.098-4.559-2.216-5.455
						c-0.494-0.208-12.265-5.108-24.736-3.344c-2.279,0.323-3.866,2.431-3.544,4.711c0.324,2.279,2.431,3.865,4.711,3.543
						c10.125-1.434,20.229,2.729,20.329,2.772C2480.362,597.304,2481.081,597.394,2481.77,597.315z"/>
				</g>
				<g>
					<path style="fill:#201D40;" d="M2405.279,605.745c0.872-0.102,1.718-0.477,2.398-1.132c6.911-6.626,14.454-6.349,14.771-6.335
						c2.286,0.108,4.249-1.646,4.376-3.931c0.127-2.285-1.595-4.244-3.879-4.39c-0.461-0.029-11.39-0.613-21.037,8.638
						c-1.663,1.594-1.717,4.232-0.123,5.894C2402.725,605.47,2404.027,605.891,2405.279,605.745z"/>
				</g>
				<path style="fill:#DE623C;" d="M2440.317,671.42c0.293,4.223,4.502,7.369,9.4,7.028c4.897-0.341,8.631-4.042,8.335-8.264
					c-0.293-4.222-4.502-7.368-9.399-7.027C2443.754,663.498,2440.022,667.198,2440.317,671.42z"/>
			</g>
			<path style="fill:#E62552;" d="M2484.51,1136.557c43.795,42.334,164.125-13.243,218.869-29.846
				c19.369-46.133-10.574-191.291-19.897-238.767c-16.251-82.756-54.465-140.169-124.333-156.304
				c-7.305,15.051-49.631,73.692-71.094,36.512c-44.898,15.315-47.891,98.477-48.141,147.453
				c-0.253,49.663,15.924,103.66,24.249,152.621C2473.408,1102.6,2484.51,1126.607,2484.51,1136.557z"/>
			<g>
				<g>
					<path style="fill:#494C7F;" d="M2379.553,1443.804l254.145,34.603c10.212,1.393,19.618-5.768,21.012-15.979l15.584-114.477
						l4.293-31.521c1.393-10.209-5.767-19.617-15.979-21.009l-254.144-34.596c-10.211-1.392-19.62,5.759-21.013,15.97l-4.297,31.547
						l-15.58,114.451C2362.184,1433.013,2369.334,1442.42,2379.553,1443.804z"/>
					<path style="fill:#2C2858;" d="M2379.154,1308.342l129.062,65.104c5.068,2.558,10.844,3.345,16.411,2.235
						c31.884-6.361,141.846-28.072,144.147-25.49l1.519-2.24l4.293-31.521c1.393-10.209-5.767-19.617-15.979-21.009l-254.144-34.596
						c-10.211-1.392-19.62,5.759-21.013,15.97L2379.154,1308.342z"/>
					<g>
						<path style="fill:#2C2858;" d="M2591.354,1296.17c0.273-1.008,0.586-2.075,0.913-3.196c2.955-10.14,7.422-25.463-1.166-39.812
							c-7.152-11.951-21.492-20.059-43.836-24.786c-23.33-4.936-41.241-1.872-53.234,9.108
							c-17.584,16.1-14.593,42.686-14.457,43.809l16.622-1.98c-0.022-0.191-2.046-19.318,9.202-29.539
							c7.786-7.074,20.707-8.764,38.403-5.021c17.291,3.658,28.372,9.38,32.938,17.005c4.837,8.082,1.854,18.313-0.543,26.531
							c-0.354,1.221-0.693,2.385-0.992,3.48L2591.354,1296.17z"/>
					</g>
				</g>
				<path style="fill:#F37A50;" d="M2520.93,1242.359c7.162,1.766,15.51-0.467,18.06-9.195c3.01-10.303-16.268-6.619-16.268-6.619
					c1.721-13.137,22.049-20.703,30.523-16.402l12.106-23.801l37.474,27.893l-15.077,20.189
					c0.412,43.812-35.261,38.469-51.409,30.686C2522.991,1258.678,2514.956,1250.533,2520.93,1242.359z"/>
				<path style="fill:#C4204A;" d="M2590.633,743.638c45.76,19.382,97.831,84.857,109.464,251.824
					c-60.296,29.251-103.573,13.936-103.573,13.936s-25.376-65.673-49.507-152.495
					C2522.887,770.083,2561.719,731.391,2590.633,743.638z"/>
				<path style="fill:#C4204A;" d="M2555.816,1200.953c0,0,43.657-130.06,39.926-198.221c31.842-14.725,70.817-14.261,104.354-7.271
					c-3.224,72.229-30.166,172.085-104.231,234.198C2584.006,1208.179,2555.816,1200.953,2555.816,1200.953z"/>
			</g>
		</g>
	</g>
</g>
</svg>
